<svg viewBox="0 0 42 42" xmlns="http://www.w3.org/2000/svg"><path d="m21 4c3.39 0 6.71.52 9.87 1.54 2.64.86 4.73 2.94 5.58 5.58 2.06 6.37 2.06 13.38 0 19.74-.85 2.64-2.94 4.73-5.58 5.58-3.16 1.02-6.48 1.54-9.88 1.54s-6.7-.52-9.86-1.54c-2.64-.85-4.73-2.94-5.58-5.58-2.06-6.37-2.06-13.38 0-19.74.86-2.64 2.94-4.73 5.58-5.58 3.16-1.02 6.48-1.54 9.87-1.54m0-4c-3.81 0-7.54.59-11.1 1.74-3.86 1.25-6.91 4.3-8.16 8.16-2.32 7.16-2.32 15.05 0 22.21 1.25 3.86 4.3 6.91 8.16 8.16 3.56 1.15 7.29 1.74 11.09 1.74h.01c3.81 0 7.54-.59 11.1-1.74 3.86-1.25 6.91-4.3 8.16-8.16 2.32-7.16 2.32-15.05 0-22.21-1.25-3.86-4.3-6.91-8.16-8.16-3.56-1.15-7.3-1.74-11.1-1.74z"/><path d="m26 17h-6c-1.66 0-3 1.34-3 3v11c0 1.1.9 2 2 2s2-.9 2-2v-10h5c1.1 0 2-.9 2-2s-.9-2-2-2z"/></svg>